# xmcd CD database file
#
# Track frame offsets:
#	150
#	16601
#	24693
#	38246
#	47633
#	58386
#	71438
#	83926
#	95529
#	110280
#
# Disc length: 1647 seconds
#
# Revision: 0
# Processed by: cddbd v1.5.1PL2 Copyright (c) Steve Scherf et al.
# Submitted via: CDex 1.51
#
DISCID=7c066d0a
DTITLE=井上知祥（琴祥流）・間瀬祥美麗（琴祥流）・吉田峯男・伊藤真智子・大森輝美 - 大正琴名曲集2 心の童謡
DYEAR=1900
DGENRE=Instrumental
TTITLE0=鯉のぼり (文部省唱歌)
TTITLE1=かもめの水兵さん (河村光陽)
TTITLE2=背くらべ (中山晋平)
TTITLE3=赤い靴 (本居長世)
TTITLE4=雨 (弘田龍太郎)
TTITLE5=人形 (文部省唱歌)
TTITLE6=仲よし小道〜あの町この町 (河村光陽・中山晋平)
TTITLE7=春よ来い〜どこかで春が (弘田龍太郎)
TTITLE8=くつが鳴る (弘田龍太郎)
TTITLE9=案山子〜虫の声 (文部省唱歌)
EXTD=
EXTT0=
EXTT1=
EXTT2=
EXTT3=
EXTT4=
EXTT5=
EXTT6=
EXTT7=
EXTT8=
EXTT9=
PLAYORDER=
